<svg id="Capa_1" data-name="Capa 1" xmlns="http://www.w3.org/2000/svg" viewBox="0 0 351.87 98.63"><defs><style>.cls-1{fill:#513d59;}</style></defs><title>LogoAtticoMorado</title><path class="cls-1" d="M201.36,379.65,169.2,361.08a12.21,12.21,0,0,0-12.18,0l-32.16,18.57a12.22,12.22,0,0,0-6.1,10.55v37.14a12.22,12.22,0,0,0,6.1,10.55L157,456.46a12.26,12.26,0,0,0,12.18,0l32.16-18.57a12.22,12.22,0,0,0,6.1-10.55V390.2A12.22,12.22,0,0,0,201.36,379.65Zm-48,35.47,9.87-13.2,9.87,13.2Zm50.38,12.22a8.46,8.46,0,0,1-4.22,7.3l-32.16,18.57a8.48,8.48,0,0,1-8.44,0l-32.16-18.57a8.46,8.46,0,0,1-4.22-7.3V390.2a8.49,8.49,0,0,1,4.22-7.31l32.16-18.56a8.17,8.17,0,0,1,2.43-.92v34.75l-13.23,17.71a1.86,1.86,0,0,0-.18,2,1.88,1.88,0,0,0,1.68,1h.68l-2.6,4.52a1.87,1.87,0,0,0,.7,2.55,1.86,1.86,0,0,0,2.55-.69l3.67-6.38h6.68v6.57a1.88,1.88,0,1,0,3.75,0v-6.57h6.78l3.67,6.38a1.87,1.87,0,0,0,1.63.94,1.83,1.83,0,0,0,.93-.25,1.86,1.86,0,0,0,.69-2.55l-2.59-4.52h.68a1.85,1.85,0,0,0,1.67-1,1.88,1.88,0,0,0-.17-2l-13.24-17.71V363.44a8.25,8.25,0,0,1,2.26.89l32.16,18.56a8.49,8.49,0,0,1,4.22,7.31Z" transform="translate(-118.76 -359.45)"/><path class="cls-1" d="M241.94,397.28v23.91h-3v-4.11a13.2,13.2,0,0,1-4.34,3.54,11.78,11.78,0,0,1-5.27,1.18,11.63,11.63,0,0,1-8.66-3.68,12.31,12.31,0,0,1-3.6-8.95,12.09,12.09,0,0,1,3.63-8.83,11.8,11.8,0,0,1,8.72-3.67,11.35,11.35,0,0,1,5.33,1.25,12.27,12.27,0,0,1,4.19,3.76v-4.4Zm-12.3,2.35a9.3,9.3,0,0,0-4.74,1.27,9.18,9.18,0,0,0-3.45,3.54,9.65,9.65,0,0,0,0,9.66,9.46,9.46,0,0,0,3.48,3.59,9.1,9.1,0,0,0,4.68,1.28,9.62,9.62,0,0,0,4.79-1.27,9,9,0,0,0,3.48-3.45,9.85,9.85,0,0,0,1.21-4.89,9.52,9.52,0,0,0-2.73-6.94A9,9,0,0,0,229.64,399.63Z" transform="translate(-118.76 -359.45)"/><path class="cls-1" d="M251.54,388.41h3.08v8.87h4.87v2.66h-4.87v21.25h-3.08V399.94h-4.2v-2.66h4.2Z" transform="translate(-118.76 -359.45)"/><path class="cls-1" d="M266.79,388.41h3.08v8.87h4.87v2.66h-4.87v21.25h-3.08V399.94h-4.2v-2.66h4.2Z" transform="translate(-118.76 -359.45)"/><path class="cls-1" d="M280.42,387.44a2.54,2.54,0,0,1,0,5.08,2.42,2.42,0,0,1-1.77-.75,2.53,2.53,0,0,1,0-3.58A2.42,2.42,0,0,1,280.42,387.44Zm-1.52,9.84H282v23.91H278.9Z" transform="translate(-118.76 -359.45)"/><path class="cls-1" d="M311.57,402.25l-2.44,1.52a10.22,10.22,0,0,0-8.63-4.2,10,10,0,0,0-7.25,2.81,9.17,9.17,0,0,0-2.88,6.82,9.73,9.73,0,0,0,1.32,4.92,9.3,9.3,0,0,0,3.65,3.58,11,11,0,0,0,13.79-2.93l2.44,1.61a11.54,11.54,0,0,1-4.6,4,14.69,14.69,0,0,1-6.58,1.42,13,13,0,0,1-9.41-3.6,11.71,11.71,0,0,1-3.73-8.77A12.53,12.53,0,0,1,289,403a12.33,12.33,0,0,1,4.8-4.65,14,14,0,0,1,6.84-1.67,14.68,14.68,0,0,1,4.58.72,13,13,0,0,1,3.74,1.89A10.34,10.34,0,0,1,311.57,402.25Z" transform="translate(-118.76 -359.45)"/><path class="cls-1" d="M328.8,396.67a11.82,11.82,0,0,1,9.15,4,12.83,12.83,0,0,1-.19,17.39,12.65,12.65,0,0,1-18,0,12.82,12.82,0,0,1-.18-17.37A11.83,11.83,0,0,1,328.8,396.67Zm0,3a8.88,8.88,0,0,0-6.59,2.83,9.47,9.47,0,0,0-2.75,6.86,9.66,9.66,0,0,0,1.25,4.83,8.84,8.84,0,0,0,3.4,3.46,9.64,9.64,0,0,0,9.39,0,8.84,8.84,0,0,0,3.4-3.46,9.66,9.66,0,0,0,1.25-4.83,9.48,9.48,0,0,0-2.76-6.86A8.89,8.89,0,0,0,328.78,399.68Z" transform="translate(-118.76 -359.45)"/><path class="cls-1" d="M359,399.9l-2,2a7.11,7.11,0,0,0-4.83-2.39,3.66,3.66,0,0,0-2.57,1,3,3,0,0,0-1.06,2.3,3.39,3.39,0,0,0,.88,2.22,12.28,12.28,0,0,0,3.7,2.53,13.77,13.77,0,0,1,4.66,3.43,6.21,6.21,0,0,1,1.22,3.75,6.73,6.73,0,0,1-2.07,5,7.08,7.08,0,0,1-5.17,2,9,9,0,0,1-3.95-.9,8.47,8.47,0,0,1-3.12-2.48l1.93-2.2a6.72,6.72,0,0,0,5,2.66,4.48,4.48,0,0,0,3.15-1.18,3.67,3.67,0,0,0,1.3-2.79,3.56,3.56,0,0,0-.86-2.36,13.73,13.73,0,0,0-3.87-2.54,12.43,12.43,0,0,1-4.4-3.3,6.18,6.18,0,0,1-1.17-3.71,6,6,0,0,1,1.86-4.53,6.47,6.47,0,0,1,4.7-1.8C354.52,396.67,356.73,397.74,359,399.9Z" transform="translate(-118.76 -359.45)"/><path class="cls-1" d="M367.09,388.41h3.08v8.87h4.88v2.66h-4.88v21.25h-3.08V399.94H362.9v-2.66h4.19Z" transform="translate(-118.76 -359.45)"/><path class="cls-1" d="M379.27,397.28h3.07v11.17a24,24,0,0,0,.44,5.62,6.25,6.25,0,0,0,2.52,3.47,7.66,7.66,0,0,0,4.44,1.28,7.52,7.52,0,0,0,4.36-1.24,6.33,6.33,0,0,0,2.48-3.27,23,23,0,0,0,.46-5.86V397.28h3.14V409a18.58,18.58,0,0,1-1.15,7.45,8.87,8.87,0,0,1-3.47,3.92,11,11,0,0,1-5.81,1.41,11.15,11.15,0,0,1-5.84-1.41,8.79,8.79,0,0,1-3.49-4,19.27,19.27,0,0,1-1.15-7.63Z" transform="translate(-118.76 -359.45)"/><path class="cls-1" d="M430.88,388.05v33.14h-3v-4.11a13.2,13.2,0,0,1-4.34,3.54,12.14,12.14,0,0,1-13.93-2.5,12.3,12.3,0,0,1-3.59-8.95,12.08,12.08,0,0,1,3.62-8.83,11.83,11.83,0,0,1,8.73-3.67,11.31,11.31,0,0,1,5.32,1.25,12.18,12.18,0,0,1,4.19,3.76V388.05Zm-12.29,11.58a9.32,9.32,0,0,0-8.2,4.81,9.65,9.65,0,0,0-1.28,4.83,9.77,9.77,0,0,0,1.29,4.83,9.46,9.46,0,0,0,3.48,3.59,9.16,9.16,0,0,0,4.69,1.28,9.59,9.59,0,0,0,4.78-1.27,8.88,8.88,0,0,0,3.48-3.45,9.86,9.86,0,0,0,1.22-4.89,9.49,9.49,0,0,0-2.74-6.94A9,9,0,0,0,418.59,399.63Z" transform="translate(-118.76 -359.45)"/><path class="cls-1" d="M438.91,387.44a2.54,2.54,0,0,1,0,5.08,2.54,2.54,0,0,1,0-5.08Zm-1.52,9.84h3.07v23.91h-3.07Z" transform="translate(-118.76 -359.45)"/><path class="cls-1" d="M458.17,396.67a11.84,11.84,0,0,1,9.16,4,12.83,12.83,0,0,1-.19,17.39,12.65,12.65,0,0,1-18,0,12.81,12.81,0,0,1-.19-17.37A11.83,11.83,0,0,1,458.17,396.67Zm0,3a8.85,8.85,0,0,0-6.59,2.83,9.48,9.48,0,0,0-2.76,6.86,9.67,9.67,0,0,0,1.26,4.83,8.88,8.88,0,0,0,3.39,3.46,9.66,9.66,0,0,0,9.4,0,8.82,8.82,0,0,0,3.39-3.46,9.67,9.67,0,0,0,1.26-4.83,9.45,9.45,0,0,0-2.77-6.86A8.87,8.87,0,0,0,458.16,399.68Z" transform="translate(-118.76 -359.45)"/></svg>