<?xml version="1.0" encoding="utf-8"?>
<!-- Generator: Adobe Illustrator 24.0.2, SVG Export Plug-In . SVG Version: 6.00 Build 0)  -->
<svg version="1.1" id="Capa_1" xmlns="http://www.w3.org/2000/svg" xmlns:xlink="http://www.w3.org/1999/xlink" x="0px" y="0px"
	 viewBox="0 0 351.9 98.6" style="enable-background:new 0 0 351.9 98.6;" xml:space="preserve">
<style type="text/css">
	.st0{fill:#FFFFFF;}
</style>
<title>LogoAtticoMorado</title>
<path class="st0" d="M82.6,20.2L50.4,1.6c-3.8-2.2-8.4-2.2-12.2,0L6.1,20.2C2.3,22.4,0,26.4,0,30.7v37.1c0,4.4,2.3,8.4,6.1,10.5
	L38.2,97c3.8,2.2,8.4,2.2,12.2,0l32.2-18.6c3.8-2.2,6.1-6.2,6.1-10.5V30.7C88.7,26.4,86.4,22.4,82.6,20.2z M34.6,55.7l9.9-13.2
	l9.9,13.2H34.6z M85,67.9c0,3-1.6,5.8-4.2,7.3L48.6,93.8c-2.6,1.5-5.8,1.5-8.4,0L8,75.2c-2.6-1.5-4.2-4.3-4.2-7.3V30.7
	c0-3,1.6-5.8,4.2-7.3L40.2,4.9c0.8-0.4,1.6-0.7,2.4-0.9v34.8L29.4,56.4c-0.4,0.6-0.5,1.4-0.2,2c0.3,0.6,1,1,1.7,1h0.7l-2.6,4.5
	c-0.5,0.9-0.2,2,0.7,2.5c0.9,0.5,2,0.2,2.5-0.7c0,0,0,0,0,0l3.7-6.4h6.7V66c-0.1,1,0.7,1.9,1.7,2s1.9-0.7,2-1.7c0-0.1,0-0.2,0-0.3
	v-6.6h6.8l3.7,6.4c0.3,0.6,1,0.9,1.6,0.9c0.3,0,0.6-0.1,0.9-0.3c0.9-0.5,1.2-1.6,0.7-2.5c0,0,0,0,0,0l-2.6-4.5h0.7
	c0.7,0,1.3-0.4,1.7-1c0.3-0.6,0.3-1.4-0.2-2L46.3,38.7V4c0.8,0.2,1.6,0.5,2.3,0.9l32.2,18.6c2.6,1.5,4.2,4.3,4.2,7.3L85,67.9z"/>
<path class="st0" d="M123.2,37.8v23.9h-3v-4.1c-1.2,1.5-2.7,2.7-4.3,3.5c-1.6,0.8-3.4,1.2-5.3,1.2c-3.3,0-6.4-1.3-8.7-3.7
	c-2.4-2.4-3.7-5.6-3.6-9c-0.1-3.3,1.3-6.5,3.6-8.8c2.3-2.4,5.4-3.7,8.7-3.7c1.9,0,3.7,0.4,5.3,1.3c1.7,0.9,3.1,2.2,4.2,3.8v-4.4
	L123.2,37.8z M110.9,40.2c-1.7,0-3.3,0.4-4.7,1.3c-1.5,0.8-2.6,2.1-3.4,3.5c-1.7,3-1.7,6.7,0,9.7c0.8,1.5,2,2.7,3.5,3.6
	c1.4,0.8,3,1.3,4.7,1.3c1.7,0,3.3-0.4,4.8-1.3c1.5-0.8,2.7-2,3.5-3.5c0.8-1.5,1.2-3.2,1.2-4.9c0.1-2.6-0.9-5.1-2.7-6.9
	C115.9,41.1,113.4,40.1,110.9,40.2z"/>
<path class="st0" d="M132.8,29h3.1v8.9h4.9v2.7h-4.9v21.3h-3.1V40.5h-4.2v-2.7h4.2V29z"/>
<path class="st0" d="M148,29h3.1v8.9h4.9v2.7h-4.9v21.3H148V40.5h-4.2v-2.7h4.2V29z"/>
<path class="st0" d="M161.7,28c1.4,0,2.5,1.1,2.5,2.5c0,1.4-1.1,2.5-2.5,2.5c-0.7,0-1.3-0.3-1.8-0.8c-1-1-1-2.6,0-3.6c0,0,0,0,0,0
	C160.4,28.3,161,28,161.7,28z M160.1,37.8h3.1v23.9h-3.1L160.1,37.8z"/>
<path class="st0" d="M192.8,42.8l-2.4,1.5c-2-2.7-5.2-4.3-8.6-4.2c-2.7-0.1-5.3,0.9-7.3,2.8c-1.9,1.8-2.9,4.2-2.9,6.8
	c0,1.7,0.5,3.4,1.3,4.9c0.9,1.5,2.1,2.8,3.6,3.6c4.7,2.5,10.5,1.3,13.8-2.9l2.4,1.6c-1.1,1.7-2.7,3.1-4.6,4c-2.1,1-4.3,1.5-6.6,1.4
	c-3.5,0.1-6.9-1.2-9.4-3.6c-2.4-2.3-3.8-5.5-3.7-8.8c0-2.3,0.6-4.5,1.8-6.4c1.1-2,2.8-3.6,4.8-4.6c2.1-1.1,4.5-1.7,6.8-1.7
	c1.6,0,3.1,0.2,4.6,0.7c1.3,0.4,2.6,1.1,3.7,1.9C191.3,40.6,192.1,41.7,192.8,42.8z"/>
<path class="st0" d="M210,37.2c3.5-0.1,6.8,1.4,9.1,4c4.5,5,4.4,12.5-0.2,17.4c-4.9,5-12.9,5-17.9,0.1c0,0-0.1-0.1-0.1-0.1
	c-4.6-4.9-4.6-12.4-0.2-17.4C203.1,38.6,206.5,37.1,210,37.2z M210,40.2c-2.5,0-4.9,1-6.6,2.8c-1.8,1.8-2.8,4.3-2.8,6.9
	c0,1.7,0.4,3.4,1.3,4.8c0.8,1.4,2,2.6,3.4,3.5c2.9,1.6,6.5,1.6,9.4,0c1.4-0.8,2.6-2,3.4-3.5c0.8-1.5,1.3-3.1,1.3-4.8
	c0-2.6-0.9-5-2.8-6.9C214.9,41.2,212.5,40.2,210,40.2L210,40.2z"/>
<path class="st0" d="M240.2,40.4l-2,2c-1.2-1.4-3-2.3-4.8-2.4c-1,0-1.9,0.3-2.6,1c-0.7,0.6-1.1,1.4-1.1,2.3c0,0.8,0.3,1.6,0.9,2.2
	c1.1,1.1,2.3,1.9,3.7,2.5c1.8,0.8,3.4,2,4.7,3.4c0.8,1.1,1.2,2.4,1.2,3.8c0,1.9-0.7,3.7-2.1,5c-1.4,1.3-3.2,2.1-5.2,2
	c-1.4,0-2.7-0.3-4-0.9c-1.2-0.6-2.3-1.4-3.1-2.5l1.9-2.2c1.2,1.6,3,2.6,5,2.7c1.2,0,2.3-0.4,3.1-1.2c0.8-0.7,1.3-1.7,1.3-2.8
	c0-0.9-0.3-1.7-0.9-2.4c-1.1-1.1-2.4-1.9-3.9-2.5c-1.7-0.8-3.2-1.9-4.4-3.3c-0.8-1.1-1.2-2.4-1.2-3.7c-0.1-1.7,0.6-3.4,1.9-4.5
	c1.3-1.2,3-1.9,4.7-1.8C235.8,37.2,238,38.3,240.2,40.4z"/>
<path class="st0" d="M248.3,29h3.1v8.9h4.9v2.7h-4.9v21.3h-3.1V40.5h-4.2v-2.7h4.2V29z"/>
<path class="st0" d="M260.5,37.8h3.1V49c-0.1,1.9,0.1,3.8,0.4,5.6c0.4,1.4,1.3,2.6,2.5,3.5c1.3,0.9,2.9,1.3,4.4,1.3
	c1.5,0,3.1-0.4,4.4-1.2c1.2-0.8,2-1.9,2.5-3.3c0.4-1.9,0.6-3.9,0.5-5.9V37.8h3.1v11.7c0.1,2.5-0.3,5.1-1.1,7.5
	c-0.7,1.6-1.9,3-3.5,3.9c-1.8,1-3.8,1.5-5.8,1.4c-2,0.1-4.1-0.4-5.8-1.4c-1.5-0.9-2.8-2.3-3.5-4c-0.9-2.4-1.3-5-1.1-7.6L260.5,37.8z
	"/>
<path class="st0" d="M312.1,28.6v33.1h-3v-4.1c-1.2,1.5-2.7,2.7-4.3,3.5c-4.7,2.2-10.3,1.2-13.9-2.5c-2.4-2.4-3.7-5.6-3.6-9
	c-0.1-3.3,1.3-6.5,3.6-8.8c2.3-2.4,5.4-3.7,8.7-3.7c1.8,0,3.7,0.4,5.3,1.3c1.7,0.9,3.1,2.2,4.2,3.8V28.6H312.1z M299.8,40.2
	c-3.4,0-6.6,1.8-8.2,4.8c-0.8,1.5-1.3,3.1-1.3,4.8c0,1.7,0.4,3.4,1.3,4.8c0.8,1.5,2,2.7,3.5,3.6c1.4,0.8,3,1.3,4.7,1.3
	c1.7,0,3.3-0.4,4.8-1.3c1.5-0.8,2.7-2,3.5-3.5c0.8-1.5,1.2-3.2,1.2-4.9c0.1-2.6-0.9-5.1-2.7-6.9C304.8,41.1,302.4,40.1,299.8,40.2
	L299.8,40.2z"/>
<path class="st0" d="M320.1,28c1.4,0,2.5,1.1,2.5,2.5c0,1.4-1.1,2.5-2.5,2.5c-1.4,0-2.5-1.1-2.5-2.5C317.6,29.1,318.8,28,320.1,28z
	 M318.6,37.8h3.1v23.9h-3.1V37.8z"/>
<path class="st0" d="M339.4,37.2c3.5-0.1,6.8,1.4,9.2,4c4.5,5,4.4,12.5-0.2,17.4c-4.9,5-12.9,5-17.9,0.1c0,0-0.1-0.1-0.1-0.1
	c-4.6-4.9-4.7-12.4-0.2-17.4C332.5,38.6,335.9,37.1,339.4,37.2z M339.4,40.2c-2.5,0-4.9,1-6.6,2.8c-1.8,1.8-2.8,4.3-2.8,6.9
	c0,1.7,0.4,3.4,1.3,4.8c0.8,1.4,2,2.6,3.4,3.5c2.9,1.6,6.5,1.6,9.4,0c1.4-0.8,2.6-2,3.4-3.5c0.8-1.5,1.3-3.1,1.3-4.8
	c0-2.6-1-5-2.8-6.9C344.3,41.2,341.9,40.2,339.4,40.2L339.4,40.2z"/>
</svg>
